<mxfile host="Electron" modified="2023-05-22T23:20:51.276Z" agent="Mozilla/5.0 (Macintosh; Intel Mac OS X 10_15_7) AppleWebKit/537.36 (KHTML, like Gecko) draw.io/21.2.8 Chrome/112.0.5615.165 Electron/24.2.0 Safari/537.36" etag="TrlJZkGEh98aIHDNA3YS" version="21.2.8" type="device">
  <diagram name="Page-1" id="Tdo1OIQlxjpybfJL_MLT">
    <mxGraphModel dx="1368" dy="1505" grid="0" gridSize="10" guides="1" tooltips="1" connect="1" arrows="1" fold="1" page="0" pageScale="1" pageWidth="827" pageHeight="1169" math="0" shadow="0">
      <root>
        <mxCell id="0" />
        <mxCell id="1" parent="0" />
        <mxCell id="hjIjUniiMOIQKqP6LFlC-32" value="" style="rounded=0;whiteSpace=wrap;html=1;fontSize=16;" parent="1" vertex="1">
          <mxGeometry x="795" y="26" width="445" height="189" as="geometry" />
        </mxCell>
        <mxCell id="hjIjUniiMOIQKqP6LFlC-4" value="" style="rounded=0;whiteSpace=wrap;html=1;fontSize=16;" parent="1" vertex="1">
          <mxGeometry x="43" y="31" width="445" height="189" as="geometry" />
        </mxCell>
        <mxCell id="hjIjUniiMOIQKqP6LFlC-1" value="Model" style="rounded=0;whiteSpace=wrap;html=1;fontSize=16;fillColor=#f0a30a;strokeColor=#BD7000;fontColor=#000000;" parent="1" vertex="1">
          <mxGeometry x="298" y="95.5" width="120" height="60" as="geometry" />
        </mxCell>
        <mxCell id="hjIjUniiMOIQKqP6LFlC-31" style="edgeStyle=orthogonalEdgeStyle;shape=connector;rounded=0;orthogonalLoop=1;jettySize=auto;html=1;exitX=0.5;exitY=0;exitDx=0;exitDy=0;entryX=0.5;entryY=1;entryDx=0;entryDy=0;labelBackgroundColor=default;strokeColor=default;fontFamily=Helvetica;fontSize=12;fontColor=default;endArrow=block;endFill=0;startSize=8;endSize=8;" parent="1" source="hjIjUniiMOIQKqP6LFlC-7" target="hjIjUniiMOIQKqP6LFlC-4" edge="1">
          <mxGeometry relative="1" as="geometry" />
        </mxCell>
        <mxCell id="hjIjUniiMOIQKqP6LFlC-7" value="ProductsViewModel" style="rounded=0;whiteSpace=wrap;html=1;fontSize=16;fillColor=#76608a;fontColor=#ffffff;strokeColor=#432D57;" parent="1" vertex="1">
          <mxGeometry x="155" y="287" width="221" height="60" as="geometry" />
        </mxCell>
        <mxCell id="hjIjUniiMOIQKqP6LFlC-87" style="edgeStyle=orthogonalEdgeStyle;shape=connector;rounded=0;orthogonalLoop=1;jettySize=auto;html=1;exitX=0;exitY=0.5;exitDx=0;exitDy=0;entryX=0;entryY=0.5;entryDx=0;entryDy=0;labelBackgroundColor=default;strokeColor=default;fontFamily=Helvetica;fontSize=12;fontColor=default;endArrow=block;endFill=0;startSize=8;endSize=8;dashed=1;dashPattern=8 8;" parent="1" source="hjIjUniiMOIQKqP6LFlC-20" target="hjIjUniiMOIQKqP6LFlC-39" edge="1">
          <mxGeometry relative="1" as="geometry">
            <Array as="points">
              <mxPoint x="749" y="413" />
              <mxPoint x="749" y="159" />
            </Array>
          </mxGeometry>
        </mxCell>
        <mxCell id="hjIjUniiMOIQKqP6LFlC-20" value="&amp;lt;ProductsViewModelContentService&amp;gt;" style="rounded=0;whiteSpace=wrap;html=1;fontSize=16;strokeColor=#2B2333;strokeWidth=4;" parent="1" vertex="1">
          <mxGeometry x="862" y="383" width="311" height="60" as="geometry" />
        </mxCell>
        <mxCell id="hjIjUniiMOIQKqP6LFlC-42" style="edgeStyle=orthogonalEdgeStyle;shape=connector;rounded=0;orthogonalLoop=1;jettySize=auto;html=1;entryX=0.5;entryY=1;entryDx=0;entryDy=0;labelBackgroundColor=default;strokeColor=default;fontFamily=Helvetica;fontSize=12;fontColor=default;endArrow=block;endFill=0;startSize=8;endSize=8;" parent="1" source="hjIjUniiMOIQKqP6LFlC-23" target="hjIjUniiMOIQKqP6LFlC-32" edge="1">
          <mxGeometry relative="1" as="geometry" />
        </mxCell>
        <mxCell id="hjIjUniiMOIQKqP6LFlC-43" style="edgeStyle=orthogonalEdgeStyle;shape=connector;rounded=0;orthogonalLoop=1;jettySize=auto;html=1;exitX=0.5;exitY=1;exitDx=0;exitDy=0;labelBackgroundColor=default;strokeColor=default;fontFamily=Helvetica;fontSize=12;fontColor=default;endArrow=block;endFill=0;startSize=8;endSize=8;strokeWidth=4;" parent="1" source="hjIjUniiMOIQKqP6LFlC-23" target="hjIjUniiMOIQKqP6LFlC-20" edge="1">
          <mxGeometry relative="1" as="geometry" />
        </mxCell>
        <mxCell id="hjIjUniiMOIQKqP6LFlC-23" value="ProductsContentAdapter" style="rounded=0;whiteSpace=wrap;html=1;fontSize=16;fillColor=#fa6800;fontColor=#000000;strokeColor=#C73500;" parent="1" vertex="1">
          <mxGeometry x="856" y="255" width="323" height="60" as="geometry" />
        </mxCell>
        <mxCell id="hjIjUniiMOIQKqP6LFlC-29" style="edgeStyle=orthogonalEdgeStyle;shape=connector;rounded=0;orthogonalLoop=1;jettySize=auto;html=1;labelBackgroundColor=default;strokeColor=default;fontFamily=Helvetica;fontSize=12;fontColor=default;endArrow=block;endFill=0;startSize=8;endSize=8;" parent="1" source="hjIjUniiMOIQKqP6LFlC-28" target="hjIjUniiMOIQKqP6LFlC-7" edge="1">
          <mxGeometry relative="1" as="geometry" />
        </mxCell>
        <mxCell id="hjIjUniiMOIQKqP6LFlC-28" value="ProductsView" style="rounded=0;whiteSpace=wrap;html=1;fontSize=16;fillColor=#6d8764;fontColor=#ffffff;strokeColor=#3A5431;" parent="1" vertex="1">
          <mxGeometry x="155" y="398" width="221" height="60" as="geometry" />
        </mxCell>
        <mxCell id="hjIjUniiMOIQKqP6LFlC-2" value="Product" style="rounded=0;whiteSpace=wrap;html=1;fontSize=16;fillColor=#647687;fontColor=#ffffff;strokeColor=#314354;" parent="1" vertex="1">
          <mxGeometry x="78" y="61" width="120" height="60" as="geometry" />
        </mxCell>
        <mxCell id="hjIjUniiMOIQKqP6LFlC-3" value="Statement" style="rounded=0;whiteSpace=wrap;html=1;fontSize=16;fillColor=#647687;fontColor=#ffffff;strokeColor=#314354;" parent="1" vertex="1">
          <mxGeometry x="78" y="134" width="120" height="60" as="geometry" />
        </mxCell>
        <mxCell id="hjIjUniiMOIQKqP6LFlC-33" value="Model" style="rounded=0;whiteSpace=wrap;html=1;fontSize=16;fillColor=#f0a30a;strokeColor=#BD7000;fontColor=#000000;" parent="1" vertex="1">
          <mxGeometry x="1050" y="90.5" width="120" height="60" as="geometry" />
        </mxCell>
        <mxCell id="hjIjUniiMOIQKqP6LFlC-40" style="edgeStyle=orthogonalEdgeStyle;shape=connector;rounded=0;orthogonalLoop=1;jettySize=auto;html=1;labelBackgroundColor=default;strokeColor=default;fontFamily=Helvetica;fontSize=12;fontColor=default;endArrow=block;endFill=0;startSize=8;endSize=8;" parent="1" source="hjIjUniiMOIQKqP6LFlC-35" target="hjIjUniiMOIQKqP6LFlC-20" edge="1">
          <mxGeometry relative="1" as="geometry" />
        </mxCell>
        <mxCell id="hjIjUniiMOIQKqP6LFlC-35" value="ProductsViewModel" style="rounded=0;whiteSpace=wrap;html=1;fontSize=16;fillColor=#76608a;fontColor=#ffffff;strokeColor=#432D57;" parent="1" vertex="1">
          <mxGeometry x="907" y="491" width="221" height="60" as="geometry" />
        </mxCell>
        <mxCell id="hjIjUniiMOIQKqP6LFlC-36" style="edgeStyle=orthogonalEdgeStyle;shape=connector;rounded=0;orthogonalLoop=1;jettySize=auto;html=1;labelBackgroundColor=default;strokeColor=default;fontFamily=Helvetica;fontSize=12;fontColor=default;endArrow=block;endFill=0;startSize=8;endSize=8;" parent="1" source="hjIjUniiMOIQKqP6LFlC-37" target="hjIjUniiMOIQKqP6LFlC-35" edge="1">
          <mxGeometry relative="1" as="geometry" />
        </mxCell>
        <mxCell id="hjIjUniiMOIQKqP6LFlC-37" value="ProductsView" style="rounded=0;whiteSpace=wrap;html=1;fontSize=16;fillColor=#6d8764;fontColor=#ffffff;strokeColor=#3A5431;" parent="1" vertex="1">
          <mxGeometry x="907" y="602" width="221" height="60" as="geometry" />
        </mxCell>
        <mxCell id="hjIjUniiMOIQKqP6LFlC-38" value="Product" style="rounded=0;whiteSpace=wrap;html=1;fontSize=16;fillColor=#647687;fontColor=#ffffff;strokeColor=#314354;" parent="1" vertex="1">
          <mxGeometry x="830" y="56" width="120" height="60" as="geometry" />
        </mxCell>
        <mxCell id="hjIjUniiMOIQKqP6LFlC-39" value="Statement" style="rounded=0;whiteSpace=wrap;html=1;fontSize=16;fillColor=#647687;fontColor=#ffffff;strokeColor=#314354;" parent="1" vertex="1">
          <mxGeometry x="830" y="129" width="120" height="60" as="geometry" />
        </mxCell>
        <mxCell id="I67McXanCnXTtGIuJ2nW-1" value="" style="shape=table;startSize=0;container=1;collapsible=0;childLayout=tableLayout;fontSize=16;" vertex="1" parent="1">
          <mxGeometry x="163.5" y="-79.5" width="204" height="80.5" as="geometry" />
        </mxCell>
        <mxCell id="I67McXanCnXTtGIuJ2nW-2" value="" style="shape=tableRow;horizontal=0;startSize=0;swimlaneHead=0;swimlaneBody=0;strokeColor=inherit;top=0;left=0;bottom=0;right=0;collapsible=0;dropTarget=0;fillColor=none;points=[[0,0.5],[1,0.5]];portConstraint=eastwest;fontSize=16;" vertex="1" parent="I67McXanCnXTtGIuJ2nW-1">
          <mxGeometry width="204" height="40" as="geometry" />
        </mxCell>
        <mxCell id="I67McXanCnXTtGIuJ2nW-3" value="TESTABLE" style="shape=partialRectangle;html=1;whiteSpace=wrap;connectable=0;strokeColor=inherit;overflow=hidden;fillColor=none;top=0;left=0;bottom=0;right=0;pointerEvents=1;fontSize=16;" vertex="1" parent="I67McXanCnXTtGIuJ2nW-2">
          <mxGeometry width="143" height="40" as="geometry">
            <mxRectangle width="143" height="40" as="alternateBounds" />
          </mxGeometry>
        </mxCell>
        <mxCell id="I67McXanCnXTtGIuJ2nW-4" value="X" style="shape=partialRectangle;html=1;whiteSpace=wrap;connectable=0;strokeColor=inherit;overflow=hidden;fillColor=default;top=0;left=0;bottom=0;right=0;pointerEvents=1;fontSize=16;fontColor=#FF0000;" vertex="1" parent="I67McXanCnXTtGIuJ2nW-2">
          <mxGeometry x="143" width="61" height="40" as="geometry">
            <mxRectangle width="61" height="40" as="alternateBounds" />
          </mxGeometry>
        </mxCell>
        <mxCell id="I67McXanCnXTtGIuJ2nW-5" value="" style="shape=tableRow;horizontal=0;startSize=0;swimlaneHead=0;swimlaneBody=0;strokeColor=inherit;top=0;left=0;bottom=0;right=0;collapsible=0;dropTarget=0;fillColor=none;points=[[0,0.5],[1,0.5]];portConstraint=eastwest;fontSize=16;" vertex="1" parent="I67McXanCnXTtGIuJ2nW-1">
          <mxGeometry y="40" width="204" height="41" as="geometry" />
        </mxCell>
        <mxCell id="I67McXanCnXTtGIuJ2nW-6" value="MODULAR" style="shape=partialRectangle;html=1;whiteSpace=wrap;connectable=0;strokeColor=inherit;overflow=hidden;fillColor=none;top=0;left=0;bottom=0;right=0;pointerEvents=1;fontSize=16;" vertex="1" parent="I67McXanCnXTtGIuJ2nW-5">
          <mxGeometry width="143" height="41" as="geometry">
            <mxRectangle width="143" height="41" as="alternateBounds" />
          </mxGeometry>
        </mxCell>
        <mxCell id="I67McXanCnXTtGIuJ2nW-7" value="X" style="shape=partialRectangle;html=1;whiteSpace=wrap;connectable=0;strokeColor=inherit;overflow=hidden;fillColor=none;top=0;left=0;bottom=0;right=0;pointerEvents=1;fontSize=16;fontColor=#FF0000;" vertex="1" parent="I67McXanCnXTtGIuJ2nW-5">
          <mxGeometry x="143" width="61" height="41" as="geometry">
            <mxRectangle width="61" height="41" as="alternateBounds" />
          </mxGeometry>
        </mxCell>
        <mxCell id="I67McXanCnXTtGIuJ2nW-9" value="" style="shape=table;startSize=0;container=1;collapsible=0;childLayout=tableLayout;fontSize=16;" vertex="1" parent="1">
          <mxGeometry x="921" y="-79.5" width="204" height="80.5" as="geometry" />
        </mxCell>
        <mxCell id="I67McXanCnXTtGIuJ2nW-10" value="" style="shape=tableRow;horizontal=0;startSize=0;swimlaneHead=0;swimlaneBody=0;strokeColor=inherit;top=0;left=0;bottom=0;right=0;collapsible=0;dropTarget=0;fillColor=none;points=[[0,0.5],[1,0.5]];portConstraint=eastwest;fontSize=16;" vertex="1" parent="I67McXanCnXTtGIuJ2nW-9">
          <mxGeometry width="204" height="40" as="geometry" />
        </mxCell>
        <mxCell id="I67McXanCnXTtGIuJ2nW-11" value="TESTABLE" style="shape=partialRectangle;html=1;whiteSpace=wrap;connectable=0;strokeColor=inherit;overflow=hidden;fillColor=none;top=0;left=0;bottom=0;right=0;pointerEvents=1;fontSize=16;" vertex="1" parent="I67McXanCnXTtGIuJ2nW-10">
          <mxGeometry width="143" height="40" as="geometry">
            <mxRectangle width="143" height="40" as="alternateBounds" />
          </mxGeometry>
        </mxCell>
        <mxCell id="I67McXanCnXTtGIuJ2nW-12" value="&lt;font color=&quot;#00ff00&quot; style=&quot;font-size: 24px;&quot;&gt;+&lt;/font&gt;" style="shape=partialRectangle;html=1;whiteSpace=wrap;connectable=0;strokeColor=inherit;overflow=hidden;fillColor=default;top=0;left=0;bottom=0;right=0;pointerEvents=1;fontSize=16;fontColor=#FF0000;" vertex="1" parent="I67McXanCnXTtGIuJ2nW-10">
          <mxGeometry x="143" width="61" height="40" as="geometry">
            <mxRectangle width="61" height="40" as="alternateBounds" />
          </mxGeometry>
        </mxCell>
        <mxCell id="I67McXanCnXTtGIuJ2nW-13" value="" style="shape=tableRow;horizontal=0;startSize=0;swimlaneHead=0;swimlaneBody=0;strokeColor=inherit;top=0;left=0;bottom=0;right=0;collapsible=0;dropTarget=0;fillColor=none;points=[[0,0.5],[1,0.5]];portConstraint=eastwest;fontSize=16;" vertex="1" parent="I67McXanCnXTtGIuJ2nW-9">
          <mxGeometry y="40" width="204" height="41" as="geometry" />
        </mxCell>
        <mxCell id="I67McXanCnXTtGIuJ2nW-14" value="MODULAR" style="shape=partialRectangle;html=1;whiteSpace=wrap;connectable=0;strokeColor=inherit;overflow=hidden;fillColor=none;top=0;left=0;bottom=0;right=0;pointerEvents=1;fontSize=16;" vertex="1" parent="I67McXanCnXTtGIuJ2nW-13">
          <mxGeometry width="143" height="41" as="geometry">
            <mxRectangle width="143" height="41" as="alternateBounds" />
          </mxGeometry>
        </mxCell>
        <mxCell id="I67McXanCnXTtGIuJ2nW-15" value="X" style="shape=partialRectangle;html=1;whiteSpace=wrap;connectable=0;strokeColor=inherit;overflow=hidden;fillColor=none;top=0;left=0;bottom=0;right=0;pointerEvents=1;fontSize=16;fontColor=#FF0000;" vertex="1" parent="I67McXanCnXTtGIuJ2nW-13">
          <mxGeometry x="143" width="61" height="41" as="geometry">
            <mxRectangle width="61" height="41" as="alternateBounds" />
          </mxGeometry>
        </mxCell>
        <mxCell id="I67McXanCnXTtGIuJ2nW-16" value="" style="rounded=0;whiteSpace=wrap;html=1;fontFamily=Helvetica;fontSize=12;fontColor=default;" vertex="1" parent="1">
          <mxGeometry x="1622" y="337.5" width="442" height="358" as="geometry" />
        </mxCell>
        <mxCell id="I67McXanCnXTtGIuJ2nW-17" value="" style="rounded=0;whiteSpace=wrap;html=1;fontSize=16;" vertex="1" parent="1">
          <mxGeometry x="1615" y="23.5" width="445" height="189" as="geometry" />
        </mxCell>
        <mxCell id="I67McXanCnXTtGIuJ2nW-19" value="&amp;lt;ProductsViewModelContentService&amp;gt;" style="rounded=0;whiteSpace=wrap;html=1;fontSize=16;strokeColor=#2B2333;strokeWidth=4;" vertex="1" parent="1">
          <mxGeometry x="1682" y="380.5" width="311" height="60" as="geometry" />
        </mxCell>
        <mxCell id="I67McXanCnXTtGIuJ2nW-20" style="edgeStyle=orthogonalEdgeStyle;shape=connector;rounded=0;orthogonalLoop=1;jettySize=auto;html=1;entryX=0.5;entryY=1;entryDx=0;entryDy=0;labelBackgroundColor=default;strokeColor=default;fontFamily=Helvetica;fontSize=12;fontColor=default;endArrow=block;endFill=0;startSize=8;endSize=8;" edge="1" source="I67McXanCnXTtGIuJ2nW-22" target="I67McXanCnXTtGIuJ2nW-17" parent="1">
          <mxGeometry relative="1" as="geometry" />
        </mxCell>
        <mxCell id="I67McXanCnXTtGIuJ2nW-21" style="edgeStyle=orthogonalEdgeStyle;shape=connector;rounded=0;orthogonalLoop=1;jettySize=auto;html=1;exitX=0.5;exitY=1;exitDx=0;exitDy=0;labelBackgroundColor=default;strokeColor=default;fontFamily=Helvetica;fontSize=12;fontColor=default;endArrow=block;endFill=0;startSize=8;endSize=8;strokeWidth=4;" edge="1" source="I67McXanCnXTtGIuJ2nW-22" target="I67McXanCnXTtGIuJ2nW-19" parent="1">
          <mxGeometry relative="1" as="geometry" />
        </mxCell>
        <mxCell id="I67McXanCnXTtGIuJ2nW-22" value="ProductsContentAdapter" style="rounded=0;whiteSpace=wrap;html=1;fontSize=16;fillColor=#fa6800;fontColor=#000000;strokeColor=#C73500;" vertex="1" parent="1">
          <mxGeometry x="1676" y="252.5" width="323" height="60" as="geometry" />
        </mxCell>
        <mxCell id="I67McXanCnXTtGIuJ2nW-23" value="Model" style="rounded=0;whiteSpace=wrap;html=1;fontSize=16;fillColor=#f0a30a;strokeColor=#BD7000;fontColor=#000000;" vertex="1" parent="1">
          <mxGeometry x="1870" y="88" width="120" height="60" as="geometry" />
        </mxCell>
        <mxCell id="I67McXanCnXTtGIuJ2nW-24" style="edgeStyle=orthogonalEdgeStyle;shape=connector;rounded=0;orthogonalLoop=1;jettySize=auto;html=1;labelBackgroundColor=default;strokeColor=default;fontFamily=Helvetica;fontSize=12;fontColor=default;endArrow=block;endFill=0;startSize=8;endSize=8;" edge="1" source="I67McXanCnXTtGIuJ2nW-25" target="I67McXanCnXTtGIuJ2nW-19" parent="1">
          <mxGeometry relative="1" as="geometry" />
        </mxCell>
        <mxCell id="I67McXanCnXTtGIuJ2nW-25" value="ProductsViewModel" style="rounded=0;whiteSpace=wrap;html=1;fontSize=16;fillColor=#76608a;fontColor=#ffffff;strokeColor=#432D57;" vertex="1" parent="1">
          <mxGeometry x="1727" y="488.5" width="221" height="60" as="geometry" />
        </mxCell>
        <mxCell id="I67McXanCnXTtGIuJ2nW-26" style="edgeStyle=orthogonalEdgeStyle;shape=connector;rounded=0;orthogonalLoop=1;jettySize=auto;html=1;labelBackgroundColor=default;strokeColor=default;fontFamily=Helvetica;fontSize=12;fontColor=default;endArrow=block;endFill=0;startSize=8;endSize=8;" edge="1" source="I67McXanCnXTtGIuJ2nW-27" target="I67McXanCnXTtGIuJ2nW-25" parent="1">
          <mxGeometry relative="1" as="geometry" />
        </mxCell>
        <mxCell id="I67McXanCnXTtGIuJ2nW-27" value="ProductsView" style="rounded=0;whiteSpace=wrap;html=1;fontSize=16;fillColor=#6d8764;fontColor=#ffffff;strokeColor=#3A5431;" vertex="1" parent="1">
          <mxGeometry x="1727" y="599.5" width="221" height="60" as="geometry" />
        </mxCell>
        <mxCell id="I67McXanCnXTtGIuJ2nW-28" value="Product" style="rounded=0;whiteSpace=wrap;html=1;fontSize=16;fillColor=#647687;fontColor=#ffffff;strokeColor=#314354;" vertex="1" parent="1">
          <mxGeometry x="1650" y="53.5" width="120" height="60" as="geometry" />
        </mxCell>
        <mxCell id="I67McXanCnXTtGIuJ2nW-29" value="Statement" style="rounded=0;whiteSpace=wrap;html=1;fontSize=16;fillColor=#647687;fontColor=#ffffff;strokeColor=#314354;" vertex="1" parent="1">
          <mxGeometry x="1650" y="126.5" width="120" height="60" as="geometry" />
        </mxCell>
        <mxCell id="I67McXanCnXTtGIuJ2nW-31" value="" style="shape=table;startSize=0;container=1;collapsible=0;childLayout=tableLayout;fontSize=16;" vertex="1" parent="1">
          <mxGeometry x="1741" y="-82" width="204" height="80.5" as="geometry" />
        </mxCell>
        <mxCell id="I67McXanCnXTtGIuJ2nW-32" value="" style="shape=tableRow;horizontal=0;startSize=0;swimlaneHead=0;swimlaneBody=0;strokeColor=inherit;top=0;left=0;bottom=0;right=0;collapsible=0;dropTarget=0;fillColor=none;points=[[0,0.5],[1,0.5]];portConstraint=eastwest;fontSize=16;" vertex="1" parent="I67McXanCnXTtGIuJ2nW-31">
          <mxGeometry width="204" height="40" as="geometry" />
        </mxCell>
        <mxCell id="I67McXanCnXTtGIuJ2nW-33" value="TESTABLE" style="shape=partialRectangle;html=1;whiteSpace=wrap;connectable=0;strokeColor=inherit;overflow=hidden;fillColor=none;top=0;left=0;bottom=0;right=0;pointerEvents=1;fontSize=16;" vertex="1" parent="I67McXanCnXTtGIuJ2nW-32">
          <mxGeometry width="143" height="40" as="geometry">
            <mxRectangle width="143" height="40" as="alternateBounds" />
          </mxGeometry>
        </mxCell>
        <mxCell id="I67McXanCnXTtGIuJ2nW-34" value="&lt;font color=&quot;#00ff00&quot; style=&quot;font-size: 24px;&quot;&gt;+&lt;/font&gt;" style="shape=partialRectangle;html=1;whiteSpace=wrap;connectable=0;strokeColor=inherit;overflow=hidden;fillColor=default;top=0;left=0;bottom=0;right=0;pointerEvents=1;fontSize=16;fontColor=#FF0000;" vertex="1" parent="I67McXanCnXTtGIuJ2nW-32">
          <mxGeometry x="143" width="61" height="40" as="geometry">
            <mxRectangle width="61" height="40" as="alternateBounds" />
          </mxGeometry>
        </mxCell>
        <mxCell id="I67McXanCnXTtGIuJ2nW-35" value="" style="shape=tableRow;horizontal=0;startSize=0;swimlaneHead=0;swimlaneBody=0;strokeColor=inherit;top=0;left=0;bottom=0;right=0;collapsible=0;dropTarget=0;fillColor=none;points=[[0,0.5],[1,0.5]];portConstraint=eastwest;fontSize=16;" vertex="1" parent="I67McXanCnXTtGIuJ2nW-31">
          <mxGeometry y="40" width="204" height="41" as="geometry" />
        </mxCell>
        <mxCell id="I67McXanCnXTtGIuJ2nW-36" value="MODULAR" style="shape=partialRectangle;html=1;whiteSpace=wrap;connectable=0;strokeColor=inherit;overflow=hidden;fillColor=none;top=0;left=0;bottom=0;right=0;pointerEvents=1;fontSize=16;" vertex="1" parent="I67McXanCnXTtGIuJ2nW-35">
          <mxGeometry width="143" height="41" as="geometry">
            <mxRectangle width="143" height="41" as="alternateBounds" />
          </mxGeometry>
        </mxCell>
        <mxCell id="I67McXanCnXTtGIuJ2nW-37" value="&lt;font color=&quot;#00ff00&quot; style=&quot;font-size: 24px;&quot;&gt;+&lt;/font&gt;" style="shape=partialRectangle;html=1;whiteSpace=wrap;connectable=0;strokeColor=inherit;overflow=hidden;fillColor=none;top=0;left=0;bottom=0;right=0;pointerEvents=1;fontSize=16;fontColor=#FF0000;" vertex="1" parent="I67McXanCnXTtGIuJ2nW-35">
          <mxGeometry x="143" width="61" height="41" as="geometry">
            <mxRectangle width="61" height="41" as="alternateBounds" />
          </mxGeometry>
        </mxCell>
      </root>
    </mxGraphModel>
  </diagram>
</mxfile>
